<svg xmlns="http://www.w3.org/2000/svg" width="64" height="62" viewBox="0 0 64 62">
  <g id="Group_24" data-name="Group 24" transform="translate(-1387 -1069)">
    <ellipse id="Ellipse_4" data-name="Ellipse 4" cx="32" cy="31" rx="32" ry="31" transform="translate(1387 1069)" fill="#e28b8b"/>
    <g id="Group_18" data-name="Group 18">
      <circle id="Ellipse_5" data-name="Ellipse 5" cx="3" cy="3" r="3" transform="translate(1406 1097)" fill="#fff"/>
      <circle id="Ellipse_6" data-name="Ellipse 6" cx="3" cy="3" r="3" transform="translate(1416 1097)" fill="#fff"/>
      <circle id="Ellipse_7" data-name="Ellipse 7" cx="3" cy="3" r="3" transform="translate(1426 1097)" fill="#fff"/>
    </g>
    <g id="Path_8" data-name="Path 8" transform="translate(1400 1088)" fill="none">
      <path d="M6,0H32a6,6,0,0,1,6,6V18a6.161,6.161,0,0,1-2.063,4.545C35.086,23.374,32,24,32,24L2.583,29.553,6,24a6,6,0,0,1-6-6V6A6,6,0,0,1,6,0Z" stroke="none"/>
      <path d="M 6 2.000001907348633 C 3.794391632080078 2.000001907348633 2 3.794391632080078 2 6.000001907348633 L 2 18 C 2 20.20561218261719 3.794391632080078 22.00000190734863 6 22.00000190734863 L 9.578920364379883 22.00000190734863 L 7.703369140625 25.04811096191406 L 6.656879425048828 26.74884796142578 L 31.61423683166504 22.03749847412109 C 32.79502868652344 21.79519653320313 34.21408462524414 21.33749771118164 34.5694694519043 21.08541870117188 C 35.53202438354492 20.16312026977539 36 19.15369033813477 36 18 L 36 6.000001907348633 C 36 3.794391632080078 34.20560836791992 2.000001907348633 32 2.000001907348633 L 6 2.000001907348633 M 6 1.9073486328125e-06 L 32 1.9073486328125e-06 C 35.3137092590332 1.9073486328125e-06 38 2.686290740966797 38 6.000001907348633 L 38 18 C 38 19.69993209838867 37.30047988891602 21.24548149108887 35.93651962280273 22.54541015625 C 35.0861701965332 23.37363052368164 32 24.00000190734863 32 24.00000190734863 L 2.583011627197266 29.55322074890137 L 6 24.00000190734863 C 2.686290740966797 24.00000190734863 0 21.31371116638184 0 18 L 0 6.000001907348633 C 0 2.686290740966797 2.686290740966797 1.9073486328125e-06 6 1.9073486328125e-06 Z" stroke="none" fill="#fff"/>
    </g>
  </g>
</svg>
