<svg xmlns="http://www.w3.org/2000/svg" xmlns:xlink="http://www.w3.org/1999/xlink" width="1273.763" height="1428.59" viewBox="0 0 1273.763 1428.59">
  <defs>
    <filter id="Path_3" x="41.889" y="120.6" width="585.53" height="652.224" filterUnits="userSpaceOnUse">
      <feOffset dy="11" input="SourceAlpha"/>
      <feGaussianBlur stdDeviation="3" result="blur"/>
      <feFlood flood-opacity="0.161"/>
      <feComposite operator="in" in2="blur"/>
      <feComposite in="SourceGraphic"/>
    </filter>
    <filter id="Path_3-2" x="546.904" y="606.771" width="585.53" height="659.224" filterUnits="userSpaceOnUse">
      <feOffset dy="18" input="SourceAlpha"/>
      <feGaussianBlur stdDeviation="3" result="blur-2"/>
      <feFlood flood-opacity="0.161"/>
      <feComposite operator="in" in2="blur-2"/>
      <feComposite in="SourceGraphic"/>
    </filter>
    <filter id="Path_3-3" x="15.508" y="776.365" width="585.53" height="652.224" filterUnits="userSpaceOnUse">
      <feOffset dy="11" input="SourceAlpha"/>
      <feGaussianBlur stdDeviation="3" result="blur-3"/>
      <feFlood flood-opacity="0.161"/>
      <feComposite operator="in" in2="blur-3"/>
      <feComposite in="SourceGraphic"/>
    </filter>
    <filter id="Path_3-4" x="688.232" y="0" width="585.53" height="652.224" filterUnits="userSpaceOnUse">
      <feOffset dy="11" input="SourceAlpha"/>
      <feGaussianBlur stdDeviation="3" result="blur-4"/>
      <feFlood flood-opacity="0.161"/>
      <feComposite operator="in" in2="blur-4"/>
      <feComposite in="SourceGraphic"/>
    </filter>
  </defs>
  <g id="Group_15" data-name="Group 15" transform="translate(-86.111 -139.41)" opacity="0.4">
    <g id="Group_11" data-name="Group 11" transform="translate(86.111 260.011)" opacity="0.09">
      <g transform="matrix(1, 0, 0, 1, 0, -120.6)" filter="url(#Path_3)">
        <g id="Path_3-5" data-name="Path 3" transform="matrix(0.82, -0.57, 0.57, 0.82, 50.89, 292.1)" fill="#d9d9d9">
          <path d="M 221.7422790527344 559.4398193359375 L 77.25963592529297 559.4398193359375 C 67.23335266113281 559.4398193359375 57.50856399536133 557.4768676757813 48.35535049438477 553.6054077148438 C 43.95584869384766 551.7445678710938 39.71220779418945 549.4411010742188 35.74249267578125 546.7592163085938 C 31.80963516235352 544.102294921875 28.11127662658691 541.0508422851563 24.75013542175293 537.689697265625 C 21.38899230957031 534.3285522460938 18.33756256103516 530.6301879882813 15.68063449859619 526.6973266601563 C 12.99870586395264 522.7276000976563 10.69527721405029 518.4840087890625 8.834420204162598 514.08447265625 C 4.962991714477539 504.9312744140625 2.999991893768311 495.2064819335938 2.999991893768311 485.1802062988281 L 2.999991893768311 77.25969696044922 C 2.999991893768311 67.23340606689453 4.962991714477539 57.50855255126953 8.834491729736328 48.35541152954102 C 10.69527721405029 43.95583724975586 12.99870586395264 39.71226501464844 15.68063449859619 35.74248123168945 C 18.33756256103516 31.80962371826172 21.38899230957031 28.11126708984375 24.75013542175293 24.75012397766113 C 28.11127662658691 21.38898086547852 31.80963516235352 18.33755302429199 35.74249267578125 15.68062400817871 C 39.71220779418945 12.99869537353516 43.95584869384766 10.69526672363281 48.35535049438477 8.834481239318848 C 57.50856399536133 4.962981224060059 67.23335266113281 2.999981164932251 77.25963592529297 2.999981164932251 L 221.7422790527344 2.999981164932251 C 231.7685699462891 2.999981164932251 241.4934234619141 4.962981224060059 250.6465606689453 8.834481239318848 C 255.0461273193359 10.69526672363281 259.2897033691406 12.99869537353516 263.2594909667969 15.68062400817871 C 267.1923522949219 18.33755302429199 270.8907165527344 21.38898086547852 274.2518615722656 24.75012397766113 C 277.6130065917969 28.11126708984375 280.6644287109375 31.80962371826172 283.3213500976563 35.74248123168945 C 286.0032653808594 39.71226501464844 288.3067016601563 43.95583724975586 290.16748046875 48.35541152954102 C 294.0390014648438 57.50855255126953 296.0019836425781 67.23340606689453 296.0019836425781 77.25969696044922 L 296.0019836425781 485.1802062988281 C 296.0019836425781 495.2064819335938 294.0390014648438 504.9312744140625 290.16748046875 514.08447265625 C 288.3067016601563 518.4840087890625 286.0032653808594 522.7276000976563 283.3213500976563 526.6973266601563 C 280.6644287109375 530.6301879882813 277.6130065917969 534.3285522460938 274.2518615722656 537.689697265625 C 270.8907165527344 541.0508422851563 267.1923522949219 544.102294921875 263.2594909667969 546.7592163085938 C 259.2897033691406 549.4411010742188 255.0461273193359 551.7445678710938 250.6465606689453 553.6053466796875 C 241.4934234619141 557.4768676757813 231.7685699462891 559.4398193359375 221.7422790527344 559.4398193359375 Z" stroke="none"/>
          <path d="M 77.25968933105469 6 C 37.96697998046875 6 6 37.9669189453125 6 77.25961303710938 L 6 485.1801452636719 C 6 524.4728393554688 37.96697998046875 556.4398193359375 77.25968933105469 556.4398193359375 L 221.7423095703125 556.4398193359375 C 261.0350036621094 556.4398193359375 293.0019836425781 524.4728393554688 293.0019836425781 485.1801452636719 L 293.0019836425781 77.25961303710938 C 293.0019836425781 37.9669189453125 261.0350036621094 6 221.7423095703125 6 L 77.25968933105469 6 M 77.25968933105469 0 L 221.7423095703125 0 C 264.4116821289063 0 299.0019836425781 34.59027099609375 299.0019836425781 77.25961303710938 L 299.0019836425781 485.1801452636719 C 299.0019836425781 527.8494262695313 264.4116821289063 562.4398193359375 221.7423095703125 562.4398193359375 L 77.25968933105469 562.4398193359375 C 34.59030151367188 562.4398193359375 0 527.8494262695313 0 485.1801452636719 L 0 77.25961303710938 C 0 34.59027099609375 34.59030151367188 0 77.25968933105469 0 Z" stroke="none"/>
        </g>
      </g>
      <g id="Path_2" data-name="Path 2" transform="matrix(0.819, -0.574, 0.574, 0.819, 131.648, 126.209)">
        <path d="M 104.7881164550781 21.89221572875977 L 11.26768589019775 21.89221572875977 C 8.41065502166748 21.89221572875977 5.724624156951904 20.77963256835938 3.70439338684082 18.75940132141113 C 1.684162735939026 16.73917007446289 0.5715780854225159 14.05313968658447 0.5715780854225159 11.1961088180542 C 0.5715780854225159 10.3625545501709 0.5522857904434204 9.554739952087402 0.5336396098136902 8.773539543151855 C 0.4589473009109497 5.645247459411621 0.3944396078586578 2.943570375442505 1.716731905937195 1.589324235916138 C 2.432439565658569 0.8563241958618164 3.565239667892456 0.5000011324882507 5.17987060546875 0.5000011324882507 L 110.627685546875 0.5000011324882507 C 112.2720108032227 0.5000011324882507 113.4352264404297 0.8693242073059082 114.1838226318359 1.629093408584595 C 115.5947647094727 3.061093330383301 115.5524673461914 5.916170120239258 115.5034866333008 9.222078323364258 C 115.494026184082 9.860893249511719 115.4842376708984 10.52144718170166 115.4842376708984 11.1961088180542 C 115.4842376708984 14.19833946228027 114.2328567504883 16.97177124023438 111.8653793334961 19.21660041809082 C 110.1162261962891 20.89266204833984 107.4712219238281 21.89221572875977 104.7881164550781 21.89221572875977 Z" stroke="none"/>
        <path d="M 5.17987060546875 1.000001907348633 C 3.706962585449219 1.000001907348633 2.691177368164063 1.307031631469727 2.074485778808594 1.938631057739258 C 0.8993148803710938 3.142185211181641 0.9615020751953125 5.746294021606445 1.033500671386719 8.761601448059082 C 1.052223205566406 9.54573917388916 1.071578979492188 10.35658550262451 1.071578979492188 11.1961088180542 C 1.071578979492188 16.81826210021973 5.645530700683594 21.39221572875977 11.26768493652344 21.39221572875977 L 104.7881164550781 21.39221572875977 C 107.3454437255859 21.39221572875977 109.8611145019531 20.44461631774902 111.5175476074219 18.85740089416504 L 111.5194396972656 18.8555850982666 L 111.5213470458984 18.85378646850586 C 113.7867813110352 16.70570945739746 114.9842224121094 14.05772399902344 114.9842224121094 11.1961088180542 C 114.9842224121094 10.51772403717041 114.9940414428711 9.855278015136719 115.003532409668 9.21464729309082 C 115.0508422851563 6.021032333374023 115.0916976928711 3.262939453125 113.8276519775391 1.980016708374023 C 113.1779022216797 1.32056999206543 112.1311798095703 1.000001907348633 110.627685546875 1.000001907348633 L 5.17987060546875 1.000001907348633 M 5.17987060546875 1.9073486328125e-06 L 110.627685546875 1.9073486328125e-06 C 116.8111343383789 1.9073486328125e-06 115.9842224121094 5.012662887573242 115.9842224121094 11.1961088180542 C 115.9842224121094 14.38677024841309 114.6495590209961 17.26569366455078 112.2094116210938 19.57943153381348 C 110.4994277954102 21.21796989440918 107.7809143066406 22.39221572875977 104.7881164550781 22.39221572875977 L 11.26768493652344 22.39221572875977 C 5.084236145019531 22.39221572875977 0.0715789794921875 17.37955474853516 0.0715789794921875 11.1961088180542 C 0.0715789794921875 5.012662887573242 -1.003578186035156 1.9073486328125e-06 5.17987060546875 1.9073486328125e-06 Z" stroke="none"/>
      </g>
      <text id="_9:03" data-name="9:03" transform="matrix(0.819, -0.574, 0.574, 0.819, 202.725, 186.256)" fill="#8f8f8f" font-size="32" font-family="Tahoma"><tspan x="0" y="0">9:03</tspan></text>
      <g id="Group_6" data-name="Group 6" transform="matrix(0.819, -0.574, 0.574, 0.819, 179.208, 285.865)">
        <rect id="Rectangle_12" data-name="Rectangle 12" width="223.922" height="51.37" rx="22" transform="translate(0 0)" fill="#415a5d"/>
        <line id="Line_1" data-name="Line 1" x2="56.639" transform="translate(77.056 14.434)" fill="none" stroke="#fff" stroke-width="3"/>
        <line id="Line_2" data-name="Line 2" x2="43.467" transform="translate(77.056 22.398)" fill="none" stroke="#fff" stroke-width="2"/>
        <line id="Line_3" data-name="Line 3" x2="56.639" transform="translate(77.056 30.362)" fill="none" stroke="#fff" stroke-width="2"/>
        <line id="Line_4" data-name="Line 4" x2="48.736" transform="translate(138.963 14.434)" fill="none" stroke="#fff" stroke-width="3"/>
        <line id="Line_5" data-name="Line 5" x2="50.053" transform="translate(137.646 22.398)" fill="none" stroke="#fff" stroke-width="2"/>
        <line id="Line_6" data-name="Line 6" x2="28.978" transform="translate(158.721 30.362)" fill="none" stroke="#fff" stroke-width="2"/>
        <g id="Ellipse_3" data-name="Ellipse 3" transform="translate(18.441 6.586)" fill="#fff" stroke="#fff" stroke-width="1">
          <ellipse cx="19.758" cy="17.782" rx="19.758" ry="17.782" stroke="none"/>
          <ellipse cx="19.758" cy="17.782" rx="19.258" ry="17.282" fill="none"/>
        </g>
        <text id="A" transform="translate(32.93 27.172)" fill="#8f8f8f" font-size="14" font-family="Tahoma"><tspan x="0" y="0">A</tspan></text>
      </g>
      <text id="Bucuresti" transform="matrix(0.819, -0.574, 0.574, 0.819, 287.261, 150.829)" fill="#8f8f8f" font-size="8" font-family="Tahoma"><tspan x="0" y="0">Bucuresti</tspan></text>
      <text id="Sambata_3_Aprilie" data-name="Sambata, 3 Aprilie" transform="matrix(0.819, -0.574, 0.574, 0.819, 293.096, 159.16)" fill="#8f8f8f" font-size="5" font-family="Tahoma"><tspan x="0" y="0">Sambata, 3 Aprilie</tspan></text>
      <g id="Group_7" data-name="Group 7" transform="matrix(0.819, -0.574, 0.574, 0.819, 0, 486.924)" opacity="0.86">
        <rect id="Rectangle_12-2" data-name="Rectangle 12" width="353.007" height="180.455" rx="22" transform="translate(0 0)" fill="#225a61"/>
        <line id="Line_1-2" data-name="Line 1" x2="89.401" transform="translate(121.188 50.024)" fill="none" stroke="#fff" stroke-width="3"/>
        <line id="Line_2-2" data-name="Line 2" x2="68.61" transform="translate(121.188 78.612)" fill="none" stroke="#fff" stroke-width="2"/>
        <line id="Line_3-2" data-name="Line 3" x2="89.401" transform="translate(121.188 107.199)" fill="none" stroke="#fff" stroke-width="2"/>
        <line id="Line_4-2" data-name="Line 4" x2="76.926" transform="translate(218.905 50.024)" fill="none" stroke="#fff" stroke-width="3"/>
        <line id="Line_5-2" data-name="Line 5" x2="79.006" transform="translate(216.826 78.612)" fill="none" stroke="#fff" stroke-width="2"/>
        <line id="Line_6-2" data-name="Line 6" x2="45.74" transform="translate(250.092 107.199)" fill="none" stroke="#fff" stroke-width="2"/>
        <g id="Ellipse_3-2" data-name="Ellipse 3" transform="translate(28.978 55.322)" fill="#fff" stroke="#fff" stroke-width="1">
          <ellipse cx="30.954" cy="27.661" rx="30.954" ry="27.661" stroke="none"/>
          <ellipse cx="30.954" cy="27.661" rx="30.454" ry="27.161" fill="none"/>
        </g>
        <text id="B" transform="translate(51.37 91.859)" fill="#8f8f8f" font-size="26" font-family="Tahoma"><tspan x="0" y="0">B</tspan></text>
      </g>
      <rect id="Rectangle_12-3" data-name="Rectangle 12" width="139.622" height="31.613" rx="15.806" transform="matrix(0.819, -0.574, 0.574, 0.819, 398.716, 440.899)" fill="#415a5d"/>
      <line id="Line_1-3" data-name="Line 1" x2="35.316" transform="matrix(0.819, -0.574, 0.574, 0.819, 442.995, 420.37)" fill="none" stroke="#fff" stroke-width="3"/>
      <line id="Line_2-3" data-name="Line 2" x2="27.103" transform="matrix(0.819, -0.574, 0.574, 0.819, 445.844, 424.438)" fill="none" stroke="#fff" stroke-width="2"/>
      <line id="Line_3-3" data-name="Line 3" x2="35.316" transform="matrix(0.819, -0.574, 0.574, 0.819, 448.691, 428.506)" fill="none" stroke="#fff" stroke-width="2"/>
      <line id="Line_4-3" data-name="Line 4" x2="30.388" transform="matrix(0.819, -0.574, 0.574, 0.819, 474.614, 398.23)" fill="none" stroke="#fff" stroke-width="3"/>
      <line id="Line_5-3" data-name="Line 5" x2="31.21" transform="matrix(0.819, -0.574, 0.574, 0.819, 476.791, 402.768)" fill="none" stroke="#fff" stroke-width="2"/>
      <line id="Line_6-3" data-name="Line 6" x2="18.069" transform="matrix(0.819, -0.574, 0.574, 0.819, 490.403, 399.299)" fill="none" stroke="#fff" stroke-width="2"/>
      <g id="Ellipse_3-3" data-name="Ellipse 3" transform="matrix(0.819, -0.574, 0.574, 0.819, 410.692, 437.336)" fill="#fff" stroke="#fff" stroke-width="1">
        <ellipse cx="11.855" cy="11.196" rx="11.855" ry="11.196" stroke="none"/>
        <ellipse cx="11.855" cy="11.196" rx="11.355" ry="10.696" fill="none"/>
      </g>
      <text id="X" transform="matrix(0.819, -0.574, 0.574, 0.819, 424.022, 442.593)" fill="#8f8f8f" font-size="8" font-family="Tahoma"><tspan x="0" y="0">X</tspan></text>
    </g>
    <g id="Group_10" data-name="Group 10" transform="translate(642.015 746.181)" opacity="0.09">
      <g transform="matrix(1, 0, 0, 1, -555.9, -606.77)" filter="url(#Path_3-2)">
        <g id="Path_3-6" data-name="Path 3" transform="matrix(0.82, -0.57, 0.57, 0.82, 555.9, 778.27)" fill="#d9d9d9">
          <path d="M 221.7422790527344 559.4398193359375 L 77.25963592529297 559.4398193359375 C 67.23335266113281 559.4398193359375 57.50856399536133 557.4768676757813 48.35535049438477 553.6054077148438 C 43.95584869384766 551.7445678710938 39.71220779418945 549.4411010742188 35.74249267578125 546.7592163085938 C 31.80963516235352 544.102294921875 28.11127662658691 541.0508422851563 24.75013542175293 537.689697265625 C 21.38899230957031 534.3285522460938 18.33756256103516 530.6301879882813 15.68063449859619 526.6973266601563 C 12.99870586395264 522.7276000976563 10.69527721405029 518.4840087890625 8.834420204162598 514.08447265625 C 4.962991714477539 504.9312744140625 2.999991893768311 495.2064819335938 2.999991893768311 485.1802062988281 L 2.999991893768311 77.25969696044922 C 2.999991893768311 67.23340606689453 4.962991714477539 57.50855255126953 8.834491729736328 48.35541152954102 C 10.69527721405029 43.95583724975586 12.99870586395264 39.71226501464844 15.68063449859619 35.74248123168945 C 18.33756256103516 31.80962371826172 21.38899230957031 28.11126708984375 24.75013542175293 24.75012397766113 C 28.11127662658691 21.38898086547852 31.80963516235352 18.33755302429199 35.74249267578125 15.68062400817871 C 39.71220779418945 12.99869537353516 43.95584869384766 10.69526672363281 48.35535049438477 8.834481239318848 C 57.50856399536133 4.962981224060059 67.23335266113281 2.999981164932251 77.25963592529297 2.999981164932251 L 221.7422790527344 2.999981164932251 C 231.7685699462891 2.999981164932251 241.4934234619141 4.962981224060059 250.6465606689453 8.834481239318848 C 255.0461273193359 10.69526672363281 259.2897033691406 12.99869537353516 263.2594909667969 15.68062400817871 C 267.1923522949219 18.33755302429199 270.8907165527344 21.38898086547852 274.2518615722656 24.75012397766113 C 277.6130065917969 28.11126708984375 280.6644287109375 31.80962371826172 283.3213500976563 35.74248123168945 C 286.0032653808594 39.71226501464844 288.3067016601563 43.95583724975586 290.16748046875 48.35541152954102 C 294.0390014648438 57.50855255126953 296.0019836425781 67.23340606689453 296.0019836425781 77.25969696044922 L 296.0019836425781 485.1802062988281 C 296.0019836425781 495.2064819335938 294.0390014648438 504.9312744140625 290.16748046875 514.08447265625 C 288.3067016601563 518.4840087890625 286.0032653808594 522.7276000976563 283.3213500976563 526.6973266601563 C 280.6644287109375 530.6301879882813 277.6130065917969 534.3285522460938 274.2518615722656 537.689697265625 C 270.8907165527344 541.0508422851563 267.1923522949219 544.102294921875 263.2594909667969 546.7592163085938 C 259.2897033691406 549.4411010742188 255.0461273193359 551.7445678710938 250.6465606689453 553.6053466796875 C 241.4934234619141 557.4768676757813 231.7685699462891 559.4398193359375 221.7422790527344 559.4398193359375 Z" stroke="none"/>
          <path d="M 77.25968933105469 6 C 37.96697998046875 6 6 37.9669189453125 6 77.25961303710938 L 6 485.1801452636719 C 6 524.4728393554688 37.96697998046875 556.4398193359375 77.25968933105469 556.4398193359375 L 221.7423095703125 556.4398193359375 C 261.0350036621094 556.4398193359375 293.0019836425781 524.4728393554688 293.0019836425781 485.1801452636719 L 293.0019836425781 77.25961303710938 C 293.0019836425781 37.9669189453125 261.0350036621094 6 221.7423095703125 6 L 77.25968933105469 6 M 77.25968933105469 0 L 221.7423095703125 0 C 264.4116821289063 0 299.0019836425781 34.59027099609375 299.0019836425781 77.25961303710938 L 299.0019836425781 485.1801452636719 C 299.0019836425781 527.8494262695313 264.4116821289063 562.4398193359375 221.7423095703125 562.4398193359375 L 77.25968933105469 562.4398193359375 C 34.59030151367188 562.4398193359375 0 527.8494262695313 0 485.1801452636719 L 0 77.25961303710938 C 0 34.59027099609375 34.59030151367188 0 77.25968933105469 0 Z" stroke="none"/>
        </g>
      </g>
      <g id="Path_2-2" data-name="Path 2" transform="matrix(0.819, -0.574, 0.574, 0.819, 80.759, 126.209)">
        <path d="M 104.7881164550781 21.89221572875977 L 11.26768589019775 21.89221572875977 C 8.41065502166748 21.89221572875977 5.724624156951904 20.77963256835938 3.70439338684082 18.75940132141113 C 1.684162735939026 16.73917007446289 0.5715780854225159 14.05313968658447 0.5715780854225159 11.1961088180542 C 0.5715780854225159 10.3625545501709 0.5522857904434204 9.554739952087402 0.5336396098136902 8.773539543151855 C 0.4589473009109497 5.645247459411621 0.3944396078586578 2.943570375442505 1.716731905937195 1.589324235916138 C 2.432439565658569 0.8563241958618164 3.565239667892456 0.5000011324882507 5.17987060546875 0.5000011324882507 L 110.627685546875 0.5000011324882507 C 112.2720108032227 0.5000011324882507 113.4352264404297 0.8693242073059082 114.1838226318359 1.629093408584595 C 115.5947647094727 3.061093330383301 115.5524673461914 5.916170120239258 115.5034866333008 9.222078323364258 C 115.494026184082 9.860893249511719 115.4842376708984 10.52144718170166 115.4842376708984 11.1961088180542 C 115.4842376708984 14.19833946228027 114.2328567504883 16.97177124023438 111.8653793334961 19.21660041809082 C 110.1162261962891 20.89266204833984 107.4712219238281 21.89221572875977 104.7881164550781 21.89221572875977 Z" stroke="none"/>
        <path d="M 5.17987060546875 1.000001907348633 C 3.706962585449219 1.000001907348633 2.691177368164063 1.307031631469727 2.074485778808594 1.938631057739258 C 0.8993148803710938 3.142185211181641 0.9615020751953125 5.746294021606445 1.033500671386719 8.761601448059082 C 1.052223205566406 9.54573917388916 1.071578979492188 10.35658550262451 1.071578979492188 11.1961088180542 C 1.071578979492188 16.81826210021973 5.645530700683594 21.39221572875977 11.26768493652344 21.39221572875977 L 104.7881164550781 21.39221572875977 C 107.3454437255859 21.39221572875977 109.8611145019531 20.44461631774902 111.5175476074219 18.85740089416504 L 111.5194396972656 18.8555850982666 L 111.5213470458984 18.85378646850586 C 113.7867813110352 16.70570945739746 114.9842224121094 14.05772399902344 114.9842224121094 11.1961088180542 C 114.9842224121094 10.51772403717041 114.9940414428711 9.855278015136719 115.003532409668 9.21464729309082 C 115.0508422851563 6.021032333374023 115.0916976928711 3.262939453125 113.8276519775391 1.980016708374023 C 113.1779022216797 1.32056999206543 112.1311798095703 1.000001907348633 110.627685546875 1.000001907348633 L 5.17987060546875 1.000001907348633 M 5.17987060546875 1.9073486328125e-06 L 110.627685546875 1.9073486328125e-06 C 116.8111343383789 1.9073486328125e-06 115.9842224121094 5.012662887573242 115.9842224121094 11.1961088180542 C 115.9842224121094 14.38677024841309 114.6495590209961 17.26569366455078 112.2094116210938 19.57943153381348 C 110.4994277954102 21.21796989440918 107.7809143066406 22.39221572875977 104.7881164550781 22.39221572875977 L 11.26768493652344 22.39221572875977 C 5.084236145019531 22.39221572875977 0.0715789794921875 17.37955474853516 0.0715789794921875 11.1961088180542 C 0.0715789794921875 5.012662887573242 -1.003578186035156 1.9073486328125e-06 5.17987060546875 1.9073486328125e-06 Z" stroke="none"/>
      </g>
      <text id="_9:03-2" data-name="9:03" transform="matrix(0.819, -0.574, 0.574, 0.819, 151.836, 186.256)" fill="#8f8f8f" font-size="32" font-family="Tahoma"><tspan x="0" y="0">9:03</tspan></text>
      <g id="Group_6-2" data-name="Group 6" transform="matrix(0.819, -0.574, 0.574, 0.819, 218.769, 397.044)">
        <rect id="Rectangle_12-4" data-name="Rectangle 12" width="223.922" height="51.37" rx="22" transform="translate(0 0)" fill="#415a5d"/>
        <line id="Line_1-4" data-name="Line 1" x2="56.639" transform="translate(77.056 14.434)" fill="none" stroke="#fff" stroke-width="3"/>
        <line id="Line_2-4" data-name="Line 2" x2="43.467" transform="translate(77.056 22.398)" fill="none" stroke="#fff" stroke-width="2"/>
        <line id="Line_3-4" data-name="Line 3" x2="56.639" transform="translate(77.056 30.362)" fill="none" stroke="#fff" stroke-width="2"/>
        <line id="Line_4-4" data-name="Line 4" x2="48.736" transform="translate(138.963 14.434)" fill="none" stroke="#fff" stroke-width="3"/>
        <line id="Line_5-4" data-name="Line 5" x2="50.053" transform="translate(137.646 22.398)" fill="none" stroke="#fff" stroke-width="2"/>
        <line id="Line_6-4" data-name="Line 6" x2="28.978" transform="translate(158.721 30.362)" fill="none" stroke="#fff" stroke-width="2"/>
        <g id="Ellipse_3-4" data-name="Ellipse 3" transform="translate(18.441 6.586)" fill="#fff" stroke="#fff" stroke-width="1">
          <ellipse cx="19.758" cy="17.782" rx="19.758" ry="17.782" stroke="none"/>
          <ellipse cx="19.758" cy="17.782" rx="19.258" ry="17.282" fill="none"/>
        </g>
        <text id="A-2" data-name="A" transform="translate(32.93 27.172)" fill="#8f8f8f" font-size="14" font-family="Tahoma"><tspan x="0" y="0">A</tspan></text>
      </g>
      <text id="Bucuresti-2" data-name="Bucuresti" transform="matrix(0.819, -0.574, 0.574, 0.819, 236.372, 150.829)" fill="#8f8f8f" font-size="8" font-family="Tahoma"><tspan x="0" y="0">Bucuresti</tspan></text>
      <text id="Sambata_3_Aprilie-2" data-name="Sambata, 3 Aprilie" transform="matrix(0.819, -0.574, 0.574, 0.819, 242.206, 159.16)" fill="#8f8f8f" font-size="5" font-family="Tahoma"><tspan x="0" y="0">Sambata, 3 Aprilie</tspan></text>
      <g id="Group_7-2" data-name="Group 7" transform="matrix(0.819, -0.574, 0.574, 0.819, 118.705, 281.526)" opacity="0.86">
        <rect id="Rectangle_12-5" data-name="Rectangle 12" width="231.807" height="129.856" rx="22" transform="translate(0 0)" fill="#225a61"/>
        <line id="Line_1-5" data-name="Line 1" x2="58.706" transform="translate(79.58 35.998)" fill="none" stroke="#fff" stroke-width="3"/>
        <line id="Line_2-5" data-name="Line 2" x2="45.054" transform="translate(79.58 56.569)" fill="none" stroke="#fff" stroke-width="2"/>
        <line id="Line_3-5" data-name="Line 3" x2="58.706" transform="translate(79.58 77.141)" fill="none" stroke="#fff" stroke-width="2"/>
        <line id="Line_4-5" data-name="Line 4" x2="50.515" transform="translate(143.747 35.998)" fill="none" stroke="#fff" stroke-width="3"/>
        <line id="Line_5-5" data-name="Line 5" x2="51.88" transform="translate(142.382 56.569)" fill="none" stroke="#fff" stroke-width="2"/>
        <line id="Line_6-5" data-name="Line 6" x2="30.036" transform="translate(164.226 77.141)" fill="none" stroke="#fff" stroke-width="2"/>
        <g id="Ellipse_3-5" data-name="Ellipse 3" transform="translate(19.029 39.81)" fill="#fff" stroke="#fff" stroke-width="1">
          <ellipse cx="20.326" cy="19.905" rx="20.326" ry="19.905" stroke="none"/>
          <ellipse cx="20.326" cy="19.905" rx="19.826" ry="19.405" fill="none"/>
        </g>
        <text id="B-2" data-name="B" transform="translate(32.497 63.422)" fill="#8f8f8f" font-size="19" font-family="Tahoma"><tspan x="0" y="0">B</tspan></text>
      </g>
      <g id="Group_9" data-name="Group 9" transform="matrix(0.819, -0.574, 0.574, 0.819, 269.647, 472.419)">
        <rect id="Rectangle_12-6" data-name="Rectangle 12" width="223.922" height="51.37" rx="22" transform="translate(0 0)" fill="#415a5d"/>
        <line id="Line_1-6" data-name="Line 1" x2="56.639" transform="translate(77.056 14.434)" fill="none" stroke="#fff" stroke-width="3"/>
        <line id="Line_2-6" data-name="Line 2" x2="43.467" transform="translate(77.056 22.398)" fill="none" stroke="#fff" stroke-width="2"/>
        <line id="Line_3-6" data-name="Line 3" x2="56.639" transform="translate(77.056 30.362)" fill="none" stroke="#fff" stroke-width="2"/>
        <line id="Line_4-6" data-name="Line 4" x2="48.736" transform="translate(138.963 14.434)" fill="none" stroke="#fff" stroke-width="3"/>
        <line id="Line_5-6" data-name="Line 5" x2="50.053" transform="translate(137.646 22.398)" fill="none" stroke="#fff" stroke-width="2"/>
        <line id="Line_6-6" data-name="Line 6" x2="28.978" transform="translate(158.721 30.362)" fill="none" stroke="#fff" stroke-width="2"/>
        <g id="Ellipse_3-6" data-name="Ellipse 3" transform="translate(18.441 6.586)" fill="#fff" stroke="#fff" stroke-width="1">
          <ellipse cx="19.758" cy="17.782" rx="19.758" ry="17.782" stroke="none"/>
          <ellipse cx="19.758" cy="17.782" rx="19.258" ry="17.282" fill="none"/>
        </g>
        <text id="A-3" data-name="A" transform="translate(32.93 27.172)" fill="#8f8f8f" font-size="14" font-family="Tahoma"><tspan x="0" y="0">A</tspan></text>
      </g>
    </g>
    <g id="Group_13" data-name="Group 13" transform="translate(110.619 915.776)" opacity="0.09">
      <g transform="matrix(1, 0, 0, 1, -24.51, -776.37)" filter="url(#Path_3-3)">
        <g id="Path_3-7" data-name="Path 3" transform="matrix(0.82, -0.57, 0.57, 0.82, 24.51, 947.87)" fill="#d9d9d9">
          <path d="M 221.7422790527344 559.4398193359375 L 77.25963592529297 559.4398193359375 C 67.23335266113281 559.4398193359375 57.50856399536133 557.4768676757813 48.35535049438477 553.6054077148438 C 43.95584869384766 551.7445678710938 39.71220779418945 549.4411010742188 35.74249267578125 546.7592163085938 C 31.80963516235352 544.102294921875 28.11127662658691 541.0508422851563 24.75013542175293 537.689697265625 C 21.38899230957031 534.3285522460938 18.33756256103516 530.6301879882813 15.68063449859619 526.6973266601563 C 12.99870586395264 522.7276000976563 10.69527721405029 518.4840087890625 8.834420204162598 514.08447265625 C 4.962991714477539 504.9312744140625 2.999991893768311 495.2064819335938 2.999991893768311 485.1802062988281 L 2.999991893768311 77.25969696044922 C 2.999991893768311 67.23340606689453 4.962991714477539 57.50855255126953 8.834491729736328 48.35541152954102 C 10.69527721405029 43.95583724975586 12.99870586395264 39.71226501464844 15.68063449859619 35.74248123168945 C 18.33756256103516 31.80962371826172 21.38899230957031 28.11126708984375 24.75013542175293 24.75012397766113 C 28.11127662658691 21.38898086547852 31.80963516235352 18.33755302429199 35.74249267578125 15.68062400817871 C 39.71220779418945 12.99869537353516 43.95584869384766 10.69526672363281 48.35535049438477 8.834481239318848 C 57.50856399536133 4.962981224060059 67.23335266113281 2.999981164932251 77.25963592529297 2.999981164932251 L 221.7422790527344 2.999981164932251 C 231.7685699462891 2.999981164932251 241.4934234619141 4.962981224060059 250.6465606689453 8.834481239318848 C 255.0461273193359 10.69526672363281 259.2897033691406 12.99869537353516 263.2594909667969 15.68062400817871 C 267.1923522949219 18.33755302429199 270.8907165527344 21.38898086547852 274.2518615722656 24.75012397766113 C 277.6130065917969 28.11126708984375 280.6644287109375 31.80962371826172 283.3213500976563 35.74248123168945 C 286.0032653808594 39.71226501464844 288.3067016601563 43.95583724975586 290.16748046875 48.35541152954102 C 294.0390014648438 57.50855255126953 296.0019836425781 67.23340606689453 296.0019836425781 77.25969696044922 L 296.0019836425781 485.1802062988281 C 296.0019836425781 495.2064819335938 294.0390014648438 504.9312744140625 290.16748046875 514.08447265625 C 288.3067016601563 518.4840087890625 286.0032653808594 522.7276000976563 283.3213500976563 526.6973266601563 C 280.6644287109375 530.6301879882813 277.6130065917969 534.3285522460938 274.2518615722656 537.689697265625 C 270.8907165527344 541.0508422851563 267.1923522949219 544.102294921875 263.2594909667969 546.7592163085938 C 259.2897033691406 549.4411010742188 255.0461273193359 551.7445678710938 250.6465606689453 553.6053466796875 C 241.4934234619141 557.4768676757813 231.7685699462891 559.4398193359375 221.7422790527344 559.4398193359375 Z" stroke="none"/>
          <path d="M 77.25968933105469 6 C 37.96697998046875 6 6 37.9669189453125 6 77.25961303710938 L 6 485.1801452636719 C 6 524.4728393554688 37.96697998046875 556.4398193359375 77.25968933105469 556.4398193359375 L 221.7423095703125 556.4398193359375 C 261.0350036621094 556.4398193359375 293.0019836425781 524.4728393554688 293.0019836425781 485.1801452636719 L 293.0019836425781 77.25961303710938 C 293.0019836425781 37.9669189453125 261.0350036621094 6 221.7423095703125 6 L 77.25968933105469 6 M 77.25968933105469 0 L 221.7423095703125 0 C 264.4116821289063 0 299.0019836425781 34.59027099609375 299.0019836425781 77.25961303710938 L 299.0019836425781 485.1801452636719 C 299.0019836425781 527.8494262695313 264.4116821289063 562.4398193359375 221.7423095703125 562.4398193359375 L 77.25968933105469 562.4398193359375 C 34.59030151367188 562.4398193359375 0 527.8494262695313 0 485.1801452636719 L 0 77.25961303710938 C 0 34.59027099609375 34.59030151367188 0 77.25968933105469 0 Z" stroke="none"/>
        </g>
      </g>
      <g id="Path_2-3" data-name="Path 2" transform="matrix(0.819, -0.574, 0.574, 0.819, 80.759, 126.209)">
        <path d="M 104.7881164550781 21.89221572875977 L 11.26768589019775 21.89221572875977 C 8.41065502166748 21.89221572875977 5.724624156951904 20.77963256835938 3.70439338684082 18.75940132141113 C 1.684162735939026 16.73917007446289 0.5715780854225159 14.05313968658447 0.5715780854225159 11.1961088180542 C 0.5715780854225159 10.3625545501709 0.5522857904434204 9.554739952087402 0.5336396098136902 8.773539543151855 C 0.4589473009109497 5.645247459411621 0.3944396078586578 2.943570375442505 1.716731905937195 1.589324235916138 C 2.432439565658569 0.8563241958618164 3.565239667892456 0.5000011324882507 5.17987060546875 0.5000011324882507 L 110.627685546875 0.5000011324882507 C 112.2720108032227 0.5000011324882507 113.4352264404297 0.8693242073059082 114.1838226318359 1.629093408584595 C 115.5947647094727 3.061093330383301 115.5524673461914 5.916170120239258 115.5034866333008 9.222078323364258 C 115.494026184082 9.860893249511719 115.4842376708984 10.52144718170166 115.4842376708984 11.1961088180542 C 115.4842376708984 14.19833946228027 114.2328567504883 16.97177124023438 111.8653793334961 19.21660041809082 C 110.1162261962891 20.89266204833984 107.4712219238281 21.89221572875977 104.7881164550781 21.89221572875977 Z" stroke="none"/>
        <path d="M 5.17987060546875 1.000001907348633 C 3.706962585449219 1.000001907348633 2.691177368164063 1.307031631469727 2.074485778808594 1.938631057739258 C 0.8993148803710938 3.142185211181641 0.9615020751953125 5.746294021606445 1.033500671386719 8.761601448059082 C 1.052223205566406 9.54573917388916 1.071578979492188 10.35658550262451 1.071578979492188 11.1961088180542 C 1.071578979492188 16.81826210021973 5.645530700683594 21.39221572875977 11.26768493652344 21.39221572875977 L 104.7881164550781 21.39221572875977 C 107.3454437255859 21.39221572875977 109.8611145019531 20.44461631774902 111.5175476074219 18.85740089416504 L 111.5194396972656 18.8555850982666 L 111.5213470458984 18.85378646850586 C 113.7867813110352 16.70570945739746 114.9842224121094 14.05772399902344 114.9842224121094 11.1961088180542 C 114.9842224121094 10.51772403717041 114.9940414428711 9.855278015136719 115.003532409668 9.21464729309082 C 115.0508422851563 6.021032333374023 115.0916976928711 3.262939453125 113.8276519775391 1.980016708374023 C 113.1779022216797 1.32056999206543 112.1311798095703 1.000001907348633 110.627685546875 1.000001907348633 L 5.17987060546875 1.000001907348633 M 5.17987060546875 1.9073486328125e-06 L 110.627685546875 1.9073486328125e-06 C 116.8111343383789 1.9073486328125e-06 115.9842224121094 5.012662887573242 115.9842224121094 11.1961088180542 C 115.9842224121094 14.38677024841309 114.6495590209961 17.26569366455078 112.2094116210938 19.57943153381348 C 110.4994277954102 21.21796989440918 107.7809143066406 22.39221572875977 104.7881164550781 22.39221572875977 L 11.26768493652344 22.39221572875977 C 5.084236145019531 22.39221572875977 0.0715789794921875 17.37955474853516 0.0715789794921875 11.1961088180542 C 0.0715789794921875 5.012662887573242 -1.003578186035156 1.9073486328125e-06 5.17987060546875 1.9073486328125e-06 Z" stroke="none"/>
      </g>
      <text id="_9:03-3" data-name="9:03" transform="matrix(0.819, -0.574, 0.574, 0.819, 151.836, 186.256)" fill="#8f8f8f" font-size="32" font-family="Tahoma"><tspan x="0" y="0">9:03</tspan></text>
      <g id="Group_6-3" data-name="Group 6" transform="matrix(0.819, -0.574, 0.574, 0.819, 288.491, 511.991)">
        <rect id="Rectangle_12-7" data-name="Rectangle 12" width="223.922" height="51.37" rx="22" transform="translate(0 0)" fill="#415a5d"/>
        <line id="Line_1-7" data-name="Line 1" x2="56.639" transform="translate(77.056 14.434)" fill="none" stroke="#fff" stroke-width="3"/>
        <line id="Line_2-7" data-name="Line 2" x2="43.467" transform="translate(77.056 22.398)" fill="none" stroke="#fff" stroke-width="2"/>
        <line id="Line_3-7" data-name="Line 3" x2="56.639" transform="translate(77.056 30.362)" fill="none" stroke="#fff" stroke-width="2"/>
        <line id="Line_4-7" data-name="Line 4" x2="48.736" transform="translate(138.963 14.434)" fill="none" stroke="#fff" stroke-width="3"/>
        <line id="Line_5-7" data-name="Line 5" x2="50.053" transform="translate(137.646 22.398)" fill="none" stroke="#fff" stroke-width="2"/>
        <line id="Line_6-7" data-name="Line 6" x2="28.978" transform="translate(158.721 30.362)" fill="none" stroke="#fff" stroke-width="2"/>
        <g id="Ellipse_3-7" data-name="Ellipse 3" transform="translate(18.441 6.586)" fill="#fff" stroke="#fff" stroke-width="1">
          <ellipse cx="19.758" cy="17.782" rx="19.758" ry="17.782" stroke="none"/>
          <ellipse cx="19.758" cy="17.782" rx="19.258" ry="17.282" fill="none"/>
        </g>
        <text id="A-4" data-name="A" transform="translate(32.93 27.172)" fill="#8f8f8f" font-size="14" font-family="Tahoma"><tspan x="0" y="0">A</tspan></text>
      </g>
      <text id="Bucuresti-3" data-name="Bucuresti" transform="matrix(0.819, -0.574, 0.574, 0.819, 236.372, 150.829)" fill="#8f8f8f" font-size="8" font-family="Tahoma"><tspan x="0" y="0">Bucuresti</tspan></text>
      <text id="Sambata_3_Aprilie-3" data-name="Sambata, 3 Aprilie" transform="matrix(0.819, -0.574, 0.574, 0.819, 242.206, 159.16)" fill="#8f8f8f" font-size="5" font-family="Tahoma"><tspan x="0" y="0">Sambata, 3 Aprilie</tspan></text>
      <g id="Group_7-3" data-name="Group 7" transform="matrix(0.819, -0.574, 0.574, 0.819, 162.046, 343.711)" opacity="0.86">
        <rect id="Rectangle_12-8" data-name="Rectangle 12" width="353.007" height="180.455" rx="22" transform="translate(0 0)" fill="#225a61"/>
        <line id="Line_1-8" data-name="Line 1" x2="89.401" transform="translate(121.188 50.024)" fill="none" stroke="#fff" stroke-width="3"/>
        <line id="Line_2-8" data-name="Line 2" x2="68.61" transform="translate(121.188 78.612)" fill="none" stroke="#fff" stroke-width="2"/>
        <line id="Line_3-8" data-name="Line 3" x2="89.401" transform="translate(121.188 107.199)" fill="none" stroke="#fff" stroke-width="2"/>
        <line id="Line_4-8" data-name="Line 4" x2="76.926" transform="translate(218.905 50.024)" fill="none" stroke="#fff" stroke-width="3"/>
        <line id="Line_5-8" data-name="Line 5" x2="79.006" transform="translate(216.826 78.612)" fill="none" stroke="#fff" stroke-width="2"/>
        <line id="Line_6-8" data-name="Line 6" x2="45.74" transform="translate(250.092 107.199)" fill="none" stroke="#fff" stroke-width="2"/>
        <g id="Ellipse_3-8" data-name="Ellipse 3" transform="translate(28.978 55.322)" fill="#fff" stroke="#fff" stroke-width="1">
          <ellipse cx="30.954" cy="27.661" rx="30.954" ry="27.661" stroke="none"/>
          <ellipse cx="30.954" cy="27.661" rx="30.454" ry="27.161" fill="none"/>
        </g>
        <text id="B-3" data-name="B" transform="translate(51.37 91.859)" fill="#8f8f8f" font-size="26" font-family="Tahoma"><tspan x="0" y="0">B</tspan></text>
      </g>
      <g id="Group_12" data-name="Group 12" transform="translate(136.776 210.065)">
        <rect id="Rectangle_12-9" data-name="Rectangle 12" width="139.622" height="31.613" rx="15.806" transform="matrix(0.819, -0.574, 0.574, 0.819, 0, 80.084)" fill="#415a5d"/>
        <line id="Line_1-9" data-name="Line 1" x2="35.316" transform="matrix(0.819, -0.574, 0.574, 0.819, 44.279, 59.555)" fill="none" stroke="#fff" stroke-width="3"/>
        <line id="Line_2-9" data-name="Line 2" x2="27.103" transform="matrix(0.819, -0.574, 0.574, 0.819, 47.128, 63.623)" fill="none" stroke="#fff" stroke-width="2"/>
        <line id="Line_3-9" data-name="Line 3" x2="35.316" transform="matrix(0.819, -0.574, 0.574, 0.819, 49.975, 67.691)" fill="none" stroke="#fff" stroke-width="2"/>
        <line id="Line_4-9" data-name="Line 4" x2="30.388" transform="matrix(0.819, -0.574, 0.574, 0.819, 75.898, 37.415)" fill="none" stroke="#fff" stroke-width="3"/>
        <line id="Line_5-9" data-name="Line 5" x2="31.21" transform="matrix(0.819, -0.574, 0.574, 0.819, 78.075, 41.953)" fill="none" stroke="#fff" stroke-width="2"/>
        <line id="Line_6-9" data-name="Line 6" x2="18.069" transform="matrix(0.819, -0.574, 0.574, 0.819, 91.687, 38.484)" fill="none" stroke="#fff" stroke-width="2"/>
        <g id="Ellipse_3-9" data-name="Ellipse 3" transform="matrix(0.819, -0.574, 0.574, 0.819, 11.976, 76.521)" fill="#fff" stroke="#fff" stroke-width="1">
          <ellipse cx="11.855" cy="11.196" rx="11.855" ry="11.196" stroke="none"/>
          <ellipse cx="11.855" cy="11.196" rx="11.355" ry="10.696" fill="none"/>
        </g>
        <text id="X-2" data-name="X" transform="matrix(0.819, -0.574, 0.574, 0.819, 25.306, 81.778)" fill="#8f8f8f" font-size="8" font-family="Tahoma"><tspan x="0" y="0">X</tspan></text>
      </g>
    </g>
    <g id="Group_14" data-name="Group 14" transform="translate(732.454 139.41)" opacity="0.09">
      <g transform="matrix(1, 0, 0, 1, -646.34, 0)" filter="url(#Path_3-4)">
        <g id="Path_3-8" data-name="Path 3" transform="matrix(0.82, -0.57, 0.57, 0.82, 697.23, 171.5)" fill="#d9d9d9">
          <path d="M 221.7422790527344 559.4398193359375 L 77.25963592529297 559.4398193359375 C 67.23335266113281 559.4398193359375 57.50856399536133 557.4768676757813 48.35535049438477 553.6054077148438 C 43.95584869384766 551.7445678710938 39.71220779418945 549.4411010742188 35.74249267578125 546.7592163085938 C 31.80963516235352 544.102294921875 28.11127662658691 541.0508422851563 24.75013542175293 537.689697265625 C 21.38899230957031 534.3285522460938 18.33756256103516 530.6301879882813 15.68063449859619 526.6973266601563 C 12.99870586395264 522.7276000976563 10.69527721405029 518.4840087890625 8.834420204162598 514.08447265625 C 4.962991714477539 504.9312744140625 2.999991893768311 495.2064819335938 2.999991893768311 485.1802062988281 L 2.999991893768311 77.25969696044922 C 2.999991893768311 67.23340606689453 4.962991714477539 57.50855255126953 8.834491729736328 48.35541152954102 C 10.69527721405029 43.95583724975586 12.99870586395264 39.71226501464844 15.68063449859619 35.74248123168945 C 18.33756256103516 31.80962371826172 21.38899230957031 28.11126708984375 24.75013542175293 24.75012397766113 C 28.11127662658691 21.38898086547852 31.80963516235352 18.33755302429199 35.74249267578125 15.68062400817871 C 39.71220779418945 12.99869537353516 43.95584869384766 10.69526672363281 48.35535049438477 8.834481239318848 C 57.50856399536133 4.962981224060059 67.23335266113281 2.999981164932251 77.25963592529297 2.999981164932251 L 221.7422790527344 2.999981164932251 C 231.7685699462891 2.999981164932251 241.4934234619141 4.962981224060059 250.6465606689453 8.834481239318848 C 255.0461273193359 10.69526672363281 259.2897033691406 12.99869537353516 263.2594909667969 15.68062400817871 C 267.1923522949219 18.33755302429199 270.8907165527344 21.38898086547852 274.2518615722656 24.75012397766113 C 277.6130065917969 28.11126708984375 280.6644287109375 31.80962371826172 283.3213500976563 35.74248123168945 C 286.0032653808594 39.71226501464844 288.3067016601563 43.95583724975586 290.16748046875 48.35541152954102 C 294.0390014648438 57.50855255126953 296.0019836425781 67.23340606689453 296.0019836425781 77.25969696044922 L 296.0019836425781 485.1802062988281 C 296.0019836425781 495.2064819335938 294.0390014648438 504.9312744140625 290.16748046875 514.08447265625 C 288.3067016601563 518.4840087890625 286.0032653808594 522.7276000976563 283.3213500976563 526.6973266601563 C 280.6644287109375 530.6301879882813 277.6130065917969 534.3285522460938 274.2518615722656 537.689697265625 C 270.8907165527344 541.0508422851563 267.1923522949219 544.102294921875 263.2594909667969 546.7592163085938 C 259.2897033691406 549.4411010742188 255.0461273193359 551.7445678710938 250.6465606689453 553.6053466796875 C 241.4934234619141 557.4768676757813 231.7685699462891 559.4398193359375 221.7422790527344 559.4398193359375 Z" stroke="none"/>
          <path d="M 77.25968933105469 6 C 37.96697998046875 6 6 37.9669189453125 6 77.25961303710938 L 6 485.1801452636719 C 6 524.4728393554688 37.96697998046875 556.4398193359375 77.25968933105469 556.4398193359375 L 221.7423095703125 556.4398193359375 C 261.0350036621094 556.4398193359375 293.0019836425781 524.4728393554688 293.0019836425781 485.1801452636719 L 293.0019836425781 77.25961303710938 C 293.0019836425781 37.9669189453125 261.0350036621094 6 221.7423095703125 6 L 77.25968933105469 6 M 77.25968933105469 0 L 221.7423095703125 0 C 264.4116821289063 0 299.0019836425781 34.59027099609375 299.0019836425781 77.25961303710938 L 299.0019836425781 485.1801452636719 C 299.0019836425781 527.8494262695313 264.4116821289063 562.4398193359375 221.7423095703125 562.4398193359375 L 77.25968933105469 562.4398193359375 C 34.59030151367188 562.4398193359375 0 527.8494262695313 0 485.1801452636719 L 0 77.25961303710938 C 0 34.59027099609375 34.59030151367188 0 77.25968933105469 0 Z" stroke="none"/>
        </g>
      </g>
      <g id="Path_2-4" data-name="Path 2" transform="matrix(0.819, -0.574, 0.574, 0.819, 131.648, 126.209)">
        <path d="M 104.7881164550781 21.89221572875977 L 11.26768589019775 21.89221572875977 C 8.41065502166748 21.89221572875977 5.724624156951904 20.77963256835938 3.70439338684082 18.75940132141113 C 1.684162735939026 16.73917007446289 0.5715780854225159 14.05313968658447 0.5715780854225159 11.1961088180542 C 0.5715780854225159 10.3625545501709 0.5522857904434204 9.554739952087402 0.5336396098136902 8.773539543151855 C 0.4589473009109497 5.645247459411621 0.3944396078586578 2.943570375442505 1.716731905937195 1.589324235916138 C 2.432439565658569 0.8563241958618164 3.565239667892456 0.5000011324882507 5.17987060546875 0.5000011324882507 L 110.627685546875 0.5000011324882507 C 112.2720108032227 0.5000011324882507 113.4352264404297 0.8693242073059082 114.1838226318359 1.629093408584595 C 115.5947647094727 3.061093330383301 115.5524673461914 5.916170120239258 115.5034866333008 9.222078323364258 C 115.494026184082 9.860893249511719 115.4842376708984 10.52144718170166 115.4842376708984 11.1961088180542 C 115.4842376708984 14.19833946228027 114.2328567504883 16.97177124023438 111.8653793334961 19.21660041809082 C 110.1162261962891 20.89266204833984 107.4712219238281 21.89221572875977 104.7881164550781 21.89221572875977 Z" stroke="none"/>
        <path d="M 5.17987060546875 1.000001907348633 C 3.706962585449219 1.000001907348633 2.691177368164063 1.307031631469727 2.074485778808594 1.938631057739258 C 0.8993148803710938 3.142185211181641 0.9615020751953125 5.746294021606445 1.033500671386719 8.761601448059082 C 1.052223205566406 9.54573917388916 1.071578979492188 10.35658550262451 1.071578979492188 11.1961088180542 C 1.071578979492188 16.81826210021973 5.645530700683594 21.39221572875977 11.26768493652344 21.39221572875977 L 104.7881164550781 21.39221572875977 C 107.3454437255859 21.39221572875977 109.8611145019531 20.44461631774902 111.5175476074219 18.85740089416504 L 111.5194396972656 18.8555850982666 L 111.5213470458984 18.85378646850586 C 113.7867813110352 16.70570945739746 114.9842224121094 14.05772399902344 114.9842224121094 11.1961088180542 C 114.9842224121094 10.51772403717041 114.9940414428711 9.855278015136719 115.003532409668 9.21464729309082 C 115.0508422851563 6.021032333374023 115.0916976928711 3.262939453125 113.8276519775391 1.980016708374023 C 113.1779022216797 1.32056999206543 112.1311798095703 1.000001907348633 110.627685546875 1.000001907348633 L 5.17987060546875 1.000001907348633 M 5.17987060546875 1.9073486328125e-06 L 110.627685546875 1.9073486328125e-06 C 116.8111343383789 1.9073486328125e-06 115.9842224121094 5.012662887573242 115.9842224121094 11.1961088180542 C 115.9842224121094 14.38677024841309 114.6495590209961 17.26569366455078 112.2094116210938 19.57943153381348 C 110.4994277954102 21.21796989440918 107.7809143066406 22.39221572875977 104.7881164550781 22.39221572875977 L 11.26768493652344 22.39221572875977 C 5.084236145019531 22.39221572875977 0.0715789794921875 17.37955474853516 0.0715789794921875 11.1961088180542 C 0.0715789794921875 5.012662887573242 -1.003578186035156 1.9073486328125e-06 5.17987060546875 1.9073486328125e-06 Z" stroke="none"/>
      </g>
      <text id="_9:03-4" data-name="9:03" transform="matrix(0.819, -0.574, 0.574, 0.819, 202.725, 186.256)" fill="#8f8f8f" font-size="32" font-family="Tahoma"><tspan x="0" y="0">9:03</tspan></text>
      <g id="Group_6-4" data-name="Group 6" transform="matrix(0.819, -0.574, 0.574, 0.819, 179.208, 285.865)">
        <rect id="Rectangle_12-10" data-name="Rectangle 12" width="223.922" height="51.37" rx="22" transform="translate(0 0)" fill="#415a5d"/>
        <line id="Line_1-10" data-name="Line 1" x2="56.639" transform="translate(77.056 14.434)" fill="none" stroke="#fff" stroke-width="3"/>
        <line id="Line_2-10" data-name="Line 2" x2="43.467" transform="translate(77.056 22.398)" fill="none" stroke="#fff" stroke-width="2"/>
        <line id="Line_3-10" data-name="Line 3" x2="56.639" transform="translate(77.056 30.362)" fill="none" stroke="#fff" stroke-width="2"/>
        <line id="Line_4-10" data-name="Line 4" x2="48.736" transform="translate(138.963 14.434)" fill="none" stroke="#fff" stroke-width="3"/>
        <line id="Line_5-10" data-name="Line 5" x2="50.053" transform="translate(137.646 22.398)" fill="none" stroke="#fff" stroke-width="2"/>
        <line id="Line_6-10" data-name="Line 6" x2="28.978" transform="translate(158.721 30.362)" fill="none" stroke="#fff" stroke-width="2"/>
        <g id="Ellipse_3-10" data-name="Ellipse 3" transform="translate(18.441 6.586)" fill="#fff" stroke="#fff" stroke-width="1">
          <ellipse cx="19.758" cy="17.782" rx="19.758" ry="17.782" stroke="none"/>
          <ellipse cx="19.758" cy="17.782" rx="19.258" ry="17.282" fill="none"/>
        </g>
        <text id="A-5" data-name="A" transform="translate(32.93 27.172)" fill="#8f8f8f" font-size="14" font-family="Tahoma"><tspan x="0" y="0">A</tspan></text>
      </g>
      <text id="Bucuresti-4" data-name="Bucuresti" transform="matrix(0.819, -0.574, 0.574, 0.819, 287.261, 150.829)" fill="#8f8f8f" font-size="8" font-family="Tahoma"><tspan x="0" y="0">Bucuresti</tspan></text>
      <text id="Sambata_3_Aprilie-4" data-name="Sambata, 3 Aprilie" transform="matrix(0.819, -0.574, 0.574, 0.819, 293.096, 159.16)" fill="#8f8f8f" font-size="5" font-family="Tahoma"><tspan x="0" y="0">Sambata, 3 Aprilie</tspan></text>
      <g id="Group_7-4" data-name="Group 7" transform="matrix(0.819, -0.574, 0.574, 0.819, 0, 486.924)" opacity="0.86">
        <rect id="Rectangle_12-11" data-name="Rectangle 12" width="353.007" height="180.455" rx="22" transform="translate(0 0)" fill="#225a61"/>
        <line id="Line_1-11" data-name="Line 1" x2="89.401" transform="translate(121.188 50.024)" fill="none" stroke="#fff" stroke-width="3"/>
        <line id="Line_2-11" data-name="Line 2" x2="68.61" transform="translate(121.188 78.612)" fill="none" stroke="#fff" stroke-width="2"/>
        <line id="Line_3-11" data-name="Line 3" x2="89.401" transform="translate(121.188 107.199)" fill="none" stroke="#fff" stroke-width="2"/>
        <line id="Line_4-11" data-name="Line 4" x2="76.926" transform="translate(218.905 50.024)" fill="none" stroke="#fff" stroke-width="3"/>
        <line id="Line_5-11" data-name="Line 5" x2="79.006" transform="translate(216.826 78.612)" fill="none" stroke="#fff" stroke-width="2"/>
        <line id="Line_6-11" data-name="Line 6" x2="45.74" transform="translate(250.092 107.199)" fill="none" stroke="#fff" stroke-width="2"/>
        <g id="Ellipse_3-11" data-name="Ellipse 3" transform="translate(28.978 55.322)" fill="#fff" stroke="#fff" stroke-width="1">
          <ellipse cx="30.954" cy="27.661" rx="30.954" ry="27.661" stroke="none"/>
          <ellipse cx="30.954" cy="27.661" rx="30.454" ry="27.161" fill="none"/>
        </g>
        <text id="B-4" data-name="B" transform="translate(51.37 91.859)" fill="#8f8f8f" font-size="26" font-family="Tahoma"><tspan x="0" y="0">B</tspan></text>
      </g>
      <rect id="Rectangle_12-12" data-name="Rectangle 12" width="139.622" height="31.613" rx="15.806" transform="matrix(0.819, -0.574, 0.574, 0.819, 398.716, 440.899)" fill="#415a5d"/>
      <line id="Line_1-12" data-name="Line 1" x2="35.316" transform="matrix(0.819, -0.574, 0.574, 0.819, 442.995, 420.37)" fill="none" stroke="#fff" stroke-width="3"/>
      <line id="Line_2-12" data-name="Line 2" x2="27.103" transform="matrix(0.819, -0.574, 0.574, 0.819, 445.844, 424.438)" fill="none" stroke="#fff" stroke-width="2"/>
      <line id="Line_3-12" data-name="Line 3" x2="35.316" transform="matrix(0.819, -0.574, 0.574, 0.819, 448.691, 428.506)" fill="none" stroke="#fff" stroke-width="2"/>
      <line id="Line_4-12" data-name="Line 4" x2="30.388" transform="matrix(0.819, -0.574, 0.574, 0.819, 474.614, 398.23)" fill="none" stroke="#fff" stroke-width="3"/>
      <line id="Line_5-12" data-name="Line 5" x2="31.21" transform="matrix(0.819, -0.574, 0.574, 0.819, 476.791, 402.768)" fill="none" stroke="#fff" stroke-width="2"/>
      <line id="Line_6-12" data-name="Line 6" x2="18.069" transform="matrix(0.819, -0.574, 0.574, 0.819, 490.403, 399.299)" fill="none" stroke="#fff" stroke-width="2"/>
      <g id="Ellipse_3-12" data-name="Ellipse 3" transform="matrix(0.819, -0.574, 0.574, 0.819, 410.692, 437.336)" fill="#fff" stroke="#fff" stroke-width="1">
        <ellipse cx="11.855" cy="11.196" rx="11.855" ry="11.196" stroke="none"/>
        <ellipse cx="11.855" cy="11.196" rx="11.355" ry="10.696" fill="none"/>
      </g>
      <text id="X-3" data-name="X" transform="matrix(0.819, -0.574, 0.574, 0.819, 424.022, 442.593)" fill="#8f8f8f" font-size="8" font-family="Tahoma"><tspan x="0" y="0">X</tspan></text>
    </g>
  </g>
</svg>
